<svg width="94" height="101" viewBox="0 0 94 101" fill="none" xmlns="http://www.w3.org/2000/svg">
<path d="M93.5 46.0971C93.5 71.2706 72.6904 91.6943 47 91.6943C43.6035 91.6943 40.2925 91.3373 37.1039 90.6596C16.1702 86.2107 0.5 67.9428 0.5 46.0971C0.5 20.9236 21.3096 0.5 47 0.5C72.6904 0.5 93.5 20.9236 93.5 46.0971Z" fill="#CEEAF0" stroke="#5DB8EB"/>
<path opacity="0.4" d="M24.5547 30.5176H30.7852V61.0449H24.5547V30.5176ZM38.6953 30.5176H55.0039C56.9961 30.5176 58.7279 30.7324 60.1992 31.1621C61.6836 31.5788 62.9141 32.1582 63.8906 32.9004C64.8672 33.6426 65.5898 34.528 66.0586 35.5566C66.5404 36.5723 66.7812 37.6725 66.7812 38.8574C66.7812 40.7975 66.1693 42.4967 64.9453 43.9551C66.3516 44.7884 67.3997 45.8691 68.0898 47.1973C68.7799 48.5254 69.125 50.0358 69.125 51.7285C69.125 53.1478 68.8841 54.4303 68.4023 55.5762C67.9336 56.722 67.2109 57.7051 66.2344 58.5254C65.2708 59.3327 64.0469 59.9577 62.5625 60.4004C61.0911 60.8301 59.3529 61.0449 57.3477 61.0449H38.6953V30.5176ZM57.3867 42.2363C57.9206 42.2363 58.4414 42.2559 58.9492 42.2949C59.8216 41.4616 60.2578 40.5111 60.2578 39.4434C60.2578 38.3366 59.8216 37.4837 58.9492 36.8848C58.0898 36.2728 56.8268 35.9668 55.1602 35.9668H44.8867V42.2363H57.3867ZM57.5039 55.6543C59.1706 55.6543 60.4336 55.2962 61.293 54.5801C62.1654 53.8639 62.6016 52.8548 62.6016 51.5527C62.6016 50.2507 62.1654 49.235 61.293 48.5059C60.4336 47.7767 59.1706 47.4121 57.5039 47.4121H44.8867V55.6543H57.5039Z" fill="black"/>
</svg>
