<?xml version="1.0" standalone="no"?>
<!DOCTYPE svg PUBLIC "-//W3C//DTD SVG 20010904//EN"
 "http://www.w3.org/TR/2001/REC-SVG-20010904/DTD/svg10.dtd">
<svg version="1.0" xmlns="http://www.w3.org/2000/svg"
 width="534.000000pt" height="512.000000pt" viewBox="0 0 534.000000 512.000000"
 preserveAspectRatio="xMidYMid meet">

<g transform="translate(0.000000,512.000000) scale(0.100000,-0.100000)"
fill="#000000" stroke="none">
<path d="M665 5101 c-49 -22 -91 -69 -105 -119 -8 -26 -10 -758 -8 -2449 l3
-2411 31 -39 c16 -21 50 -48 74 -60 l44 -23 1976 0 1976 0 44 23 c24 12 58 39
74 60 l31 39 3 2411 c2 1691 0 2423 -8 2449 -14 50 -56 97 -105 119 -38 18
-120 19 -2015 19 -1895 0 -1977 -1 -2015 -19z m3425 -601 c20 -20 20 -33 20
-850 0 -817 0 -830 -20 -850 -20 -20 -33 -20 -1410 -20 -1377 0 -1390 0 -1410
20 -20 20 -20 33 -20 850 0 817 0 830 20 850 20 20 33 20 1410 20 1377 0 1390
0 1410 -20z m-1540 -2300 c18 -18 20 -33 20 -142 0 -68 -4 -128 -8 -135 -19
-30 -103 -42 -161 -22 -26 9 -34 19 -43 55 l-12 44 -483 0 -483 0 0 -33 c0
-54 -29 -72 -112 -72 -100 0 -108 12 -108 162 0 108 1 115 25 138 l24 25 661
0 c647 0 660 0 680 -20z m531 -160 c18 -10 19 -23 19 -173 0 -114 -4 -167 -12
-175 -8 -8 -61 -12 -175 -12 -150 0 -163 1 -173 19 -5 11 -10 85 -10 167 0
195 -11 184 182 184 84 0 158 -5 169 -10z m553 -6 c13 -13 16 -43 16 -173 0
-109 -4 -161 -12 -169 -17 -17 -329 -17 -346 0 -8 8 -12 60 -12 169 0 130 3
160 16 173 23 23 315 23 338 0z m550 0 c13 -13 16 -43 16 -173 0 -109 -4 -161
-12 -169 -17 -17 -329 -17 -346 0 -8 8 -12 61 -12 175 0 144 2 163 18 172 9 6
84 11 169 11 125 0 154 -3 167 -16z m-1896 -134 l22 -21 0 -614 0 -614 -26
-20 c-26 -20 -37 -21 -421 -21 l-394 0 -24 25 -25 24 0 606 0 606 25 24 24 25
399 0 c387 0 399 -1 420 -20z m800 -412 c17 -17 17 -329 0 -346 -8 -8 -60 -12
-169 -12 -130 0 -160 3 -173 16 -13 13 -16 43 -16 169 0 126 3 156 16 169 13
13 43 16 173 16 109 0 161 -4 169 -12z m550 0 c17 -17 17 -329 0 -346 -17 -17
-329 -17 -346 0 -17 17 -17 329 0 346 8 8 61 12 173 12 112 0 165 -4 173 -12z
m552 -7 c5 -11 10 -85 10 -170 0 -123 -3 -152 -16 -165 -13 -13 -43 -16 -173
-16 -109 0 -161 4 -169 12 -17 17 -17 329 0 346 8 8 61 12 175 12 150 0 163
-1 173 -19z m-1102 -543 c8 -8 12 -61 12 -175 0 -150 -1 -163 -19 -173 -11 -5
-85 -10 -167 -10 -195 0 -184 -11 -184 182 0 84 5 158 10 169 10 18 23 19 173
19 114 0 167 -4 175 -12z m550 0 c8 -8 12 -60 12 -169 0 -130 -3 -160 -16
-173 -23 -23 -315 -23 -338 0 -13 13 -16 43 -16 173 0 109 4 161 12 169 17 17
329 17 346 0z m550 0 c8 -8 12 -60 12 -167 0 -130 -3 -157 -17 -173 -14 -16
-33 -18 -165 -18 -84 0 -158 5 -169 10 -18 10 -19 23 -19 173 0 114 4 167 12
175 17 17 329 17 346 0z"/>
<path d="M1746 4107 c-11 -8 -57 -144 -131 -385 -147 -479 -136 -436 -118
-461 12 -18 24 -21 91 -21 42 0 82 4 88 8 18 12 30 42 54 130 l22 83 116 -3
116 -3 28 -95 c15 -52 36 -101 45 -107 22 -17 175 -17 191 -1 7 7 12 20 12 31
0 10 -54 194 -121 410 -85 277 -127 397 -141 410 -17 14 -40 17 -127 17 -71 0
-113 -4 -125 -13z m193 -447 l10 -30 -81 0 c-79 0 -80 0 -74 23 4 12 21 77 39
143 l32 122 31 -115 c18 -62 37 -127 43 -143z"/>
<path d="M2202 4108 c-7 -7 -12 -42 -12 -85 0 -70 1 -74 26 -83 14 -6 66 -10
115 -10 l89 0 0 -333 c0 -246 3 -336 12 -345 16 -16 170 -16 186 0 9 9 12 99
12 344 l0 332 105 4 c64 2 109 8 116 15 21 21 24 119 5 148 l-16 25 -313 0
c-230 0 -316 -3 -325 -12z"/>
<path d="M2976 4098 c-10 -17 -21 -129 -39 -423 -30 -469 -36 -435 78 -435 51
0 76 4 84 14 8 9 17 113 26 293 8 153 14 280 15 283 0 3 25 -89 55 -205 72
-278 91 -345 103 -357 14 -14 84 -22 126 -14 43 8 44 11 147 355 l74 245 8
-280 c6 -174 13 -288 21 -304 10 -23 17 -25 93 -28 76 -3 83 -1 96 20 12 20
11 79 -9 427 -20 362 -24 406 -40 418 -24 18 -224 18 -246 1 -19 -16 -86 -216
-138 -411 l-37 -142 -32 135 c-48 202 -110 403 -129 418 -10 8 -54 12 -129 12
-106 0 -113 -1 -127 -22z"/>
</g>
</svg>
