<?xml version="1.0" standalone="no"?>
<!DOCTYPE svg PUBLIC "-//W3C//DTD SVG 20010904//EN"
 "http://www.w3.org/TR/2001/REC-SVG-20010904/DTD/svg10.dtd">
<svg version="1.0" xmlns="http://www.w3.org/2000/svg"
 width="260.000000pt" height="240.000000pt" viewBox="0 0 260.000000 240.000000"
 preserveAspectRatio="xMidYMid meet">

<g transform="translate(0.000000,240.000000) scale(0.100000,-0.100000)"
fill="#000000" stroke="none">
<path d="M22 2384 c-19 -13 -22 -24 -22 -78 0 -47 4 -67 16 -77 12 -10 58 -16
148 -19 l130 -5 182 -689 c100 -379 189 -704 198 -722 25 -54 83 -110 139
-135 l52 -24 620 0 c609 0 621 0 666 21 62 29 114 77 138 127 24 49 311 963
311 990 0 10 -11 29 -25 42 l-24 25 -919 0 c-719 0 -922 3 -935 13 -9 6 -71
124 -137 260 -101 205 -127 252 -153 268 -28 17 -52 19 -197 19 -134 0 -170
-3 -188 -16z m2280 -771 c10 -9 18 -23 18 -32 0 -8 -47 -168 -105 -356 -85
-272 -111 -345 -131 -362 l-25 -23 -574 0 -574 0 -25 23 c-22 19 -39 74 -116
364 -49 188 -90 348 -90 354 0 7 7 21 17 31 15 17 53 18 801 18 717 0 787 -1
804 -17z"/>
<path d="M839 522 c-168 -88 -154 -326 23 -402 213 -92 406 180 250 352 -74
82 -176 101 -273 50z"/>
<path d="M1914 531 c-86 -39 -145 -148 -129 -241 9 -55 62 -130 110 -157 86
-48 181 -39 256 25 79 68 101 171 55 267 -27 59 -46 77 -106 104 -56 26 -132
26 -186 2z"/>
</g>
</svg>
