<?xml version="1.0" standalone="no"?>
<!DOCTYPE svg PUBLIC "-//W3C//DTD SVG 20010904//EN"
 "http://www.w3.org/TR/2001/REC-SVG-20010904/DTD/svg10.dtd">
<svg version="1.0" xmlns="http://www.w3.org/2000/svg"
 width="527.000000pt" height="512.000000pt" viewBox="0 0 527.000000 512.000000"
 preserveAspectRatio="xMidYMid meet">

<g transform="translate(0.000000,512.000000) scale(0.100000,-0.100000)"
fill="#000000" stroke="none">
<path d="M785 5071 c-150 -69 -188 -267 -72 -382 45 -45 80 -59 219 -88 l129
-27 -63 -51 c-81 -66 -258 -246 -343 -348 -155 -186 -330 -494 -421 -740 -42
-115 -95 -317 -118 -455 -71 -412 -28 -888 115 -1282 191 -525 534 -962 1000
-1274 60 -40 178 -107 263 -150 141 -71 158 -77 213 -77 104 1 176 46 219 138
27 56 30 120 10 178 -27 74 -58 101 -207 178 -283 145 -470 289 -656 504 -316
366 -492 811 -510 1291 -21 570 199 1136 597 1534 83 83 210 197 210 188 0 -3
-14 -72 -30 -154 -34 -166 -38 -235 -17 -285 36 -87 129 -149 222 -149 97 0
202 74 225 160 23 86 180 877 180 908 0 84 -55 174 -129 211 -45 24 -878 191
-946 191 -27 0 -68 -9 -90 -19z"/>
<path d="M3535 4923 c-93 -22 -146 -62 -181 -138 -39 -83 -28 -172 30 -248 20
-26 65 -55 169 -108 232 -120 397 -238 557 -399 558 -563 751 -1377 503 -2124
-114 -343 -321 -659 -586 -895 -61 -55 -113 -98 -114 -97 -2 2 10 69 27 151
16 81 30 172 30 202 0 97 -45 166 -135 209 -125 59 -271 1 -319 -128 -20 -53
-186 -874 -186 -919 0 -83 61 -179 137 -212 52 -23 874 -187 937 -187 176 1
286 192 201 348 -48 88 -92 109 -323 155 l-64 12 65 53 c91 73 255 240 342
347 165 203 329 492 421 740 198 540 201 1182 7 1725 -190 530 -535 973 -1005
1286 -59 40 -176 106 -260 148 -145 71 -206 91 -253 79z"/>
<path d="M2613 3880 c-43 -26 -63 -68 -63 -134 l0 -55 -57 -11 c-230 -44 -390
-171 -452 -356 -27 -82 -37 -229 -21 -321 35 -213 167 -349 445 -458 l80 -31
3 -378 2 -378 -42 7 c-55 9 -133 40 -172 68 -16 11 -63 51 -104 88 -41 37 -88
70 -103 73 -37 7 -76 -8 -112 -42 -41 -39 -57 -75 -57 -129 0 -164 256 -342
543 -378 l47 -6 0 -62 c0 -72 22 -117 69 -142 68 -35 159 -6 187 60 8 19 14
63 14 99 l0 64 52 13 c29 7 78 24 108 38 226 108 340 303 340 585 0 300 -120
489 -392 620 l-108 51 0 312 0 311 53 -14 c30 -7 85 -28 123 -45 95 -43 118
-49 158 -38 68 19 126 119 111 196 -15 80 -148 158 -334 195 l-111 21 0 44 c0
24 -6 59 -14 78 -29 68 -126 96 -193 55z m-53 -760 c0 -143 -2 -260 -5 -260
-12 0 -112 54 -142 77 -97 74 -113 272 -30 361 31 34 121 78 165 81 9 1 12
-57 12 -259z m348 -784 c35 -32 74 -100 86 -150 12 -50 8 -191 -7 -235 -27
-77 -91 -145 -154 -165 l-23 -7 0 316 0 316 33 -22 c17 -12 47 -36 65 -53z"/>
</g>
</svg>
