<?xml version="1.0" standalone="no"?>
<!DOCTYPE svg PUBLIC "-//W3C//DTD SVG 20010904//EN"
 "http://www.w3.org/TR/2001/REC-SVG-20010904/DTD/svg10.dtd">
<svg version="1.0" xmlns="http://www.w3.org/2000/svg"
 width="1000.000000pt" height="1000.000000pt" viewBox="0 0 1000.000000 1000.000000"
 preserveAspectRatio="xMidYMid meet">

<g transform="translate(0.000000,1000.000000) scale(0.100000,-0.100000)"
fill="#000000" stroke="none">
<path d="M4925 8651 c-50 -24 -3849 -3822 -3865 -3864 -41 -112 37 -241 154
-254 89 -10 97 -5 449 345 l327 327 0 -1602 c0 -1390 2 -1611 15 -1674 58
-274 262 -491 544 -576 50 -15 136 -17 796 -20 661 -3 744 -2 782 12 51 20 98
71 112 122 7 25 11 326 11 891 l0 852 863 0 c815 0 864 1 902 19 65 29 115
104 115 171 0 67 -50 142 -115 171 -38 18 -91 19 -1013 19 -856 0 -977 -2
-1010 -15 -49 -21 -81 -52 -103 -100 -18 -38 -19 -85 -19 -903 l0 -862 -612 2
-613 3 -57 27 c-76 35 -138 95 -179 170 l-34 63 -3 1805 -2 1805 1315 1315
1315 1315 1832 -1831 c1974 -1973 1857 -1862 1954 -1851 119 13 196 140 154
254 -16 42 -3815 3840 -3865 3864 -51 24 -99 24 -150 0z"/>
<path d="M7744 4321 c-23 -10 -54 -36 -70 -57 l-29 -37 -5 -1106 c-5 -1045 -6
-1109 -24 -1155 -37 -101 -103 -175 -196 -223 l-55 -28 -735 -5 -735 -5 -42
-22 c-106 -57 -132 -197 -52 -287 60 -69 31 -67 854 -63 807 3 771 1 909 62
166 73 317 228 388 396 59 142 58 109 58 1306 l0 1097 -21 44 c-43 87 -155
126 -245 83z"/>
</g>
</svg>
