<?xml version="1.0" standalone="no"?>
<!DOCTYPE svg PUBLIC "-//W3C//DTD SVG 20010904//EN"
 "http://www.w3.org/TR/2001/REC-SVG-20010904/DTD/svg10.dtd">
<svg version="1.0" xmlns="http://www.w3.org/2000/svg"
 width="493.000000pt" height="50.000000pt" viewBox="0 0 493.000000 50.000000"
 preserveAspectRatio="xMidYMid meet">

<g transform="translate(0.000000,50.000000) scale(0.100000,-0.100000)"
fill="#000000" stroke="none">
<path d="M10 255 l0 -245 50 0 50 0 0 245 0 245 -50 0 -50 0 0 -245z"/>
<path d="M230 255 l0 -247 148 4 c127 3 154 7 200 27 191 85 191 348 -1 432
-44 19 -74 23 -199 27 l-148 4 0 -247z m293 141 c18 -7 45 -28 60 -45 23 -28
27 -42 27 -94 0 -117 -50 -157 -194 -157 l-86 0 0 155 0 155 80 0 c46 0 95 -6
113 -14z"/>
<path d="M820 255 l0 -245 210 0 210 0 0 45 0 45 -160 0 -160 0 0 65 0 65 140
0 140 0 0 40 0 40 -140 0 -140 0 0 50 0 49 158 3 157 3 0 40 0 40 -207 3 -208
2 0 -245z"/>
<path d="M1507 473 c-18 -34 -160 -337 -193 -410 l-24 -53 53 0 c51 0 52 1 69
40 l17 40 144 0 144 0 18 -40 c18 -39 19 -40 71 -40 l53 0 -83 173 c-46 94
-99 204 -117 242 l-35 70 -51 3 c-48 3 -53 1 -66 -25z m163 -294 c0 -5 -44 -9
-100 -9 -55 0 -100 2 -100 4 0 2 23 52 50 111 l50 108 50 -102 c28 -56 50
-106 50 -112z"/>
<path d="M1937 493 c-4 -3 -7 -114 -7 -245 l0 -238 195 0 195 0 0 45 0 45
-145 0 -145 0 0 200 0 200 -43 0 c-24 0 -47 -3 -50 -7z"/>
<path d="M2630 255 l0 -245 171 0 c197 0 237 8 281 58 28 33 30 39 26 99 -3
52 -9 68 -30 90 -25 24 -25 27 -12 60 31 73 -14 150 -100 172 -25 6 -110 11
-190 11 l-146 0 0 -245z m318 139 c22 -15 27 -38 16 -68 -5 -13 -25 -16 -120
-16 l-114 0 0 50 0 50 98 0 c72 0 103 -4 120 -16z m36 -185 c29 -23 33 -54 10
-87 -14 -21 -22 -22 -140 -22 l-124 0 0 65 0 65 114 0 c99 0 117 -3 140 -21z"/>
<path d="M3366 468 c-7 -18 -59 -129 -114 -245 l-100 -213 52 0 c52 0 53 1 71
40 l18 40 144 0 144 0 17 -40 c17 -39 18 -40 70 -40 30 0 52 4 50 9 -1 5 -54
115 -117 245 l-115 236 -53 0 c-50 0 -53 -2 -67 -32z m77 -296 c-53 -1 -98 -1
-101 2 -5 6 13 53 59 151 l33 70 52 -110 52 -110 -95 -3z"/>
<path d="M3800 255 l0 -245 50 0 50 0 0 190 0 191 150 -78 150 -78 0 -112 0
-113 50 0 50 0 0 245 0 245 -50 0 -50 0 0 -80 0 -81 -153 81 c-128 67 -162 80
-200 80 l-47 0 0 -245z"/>
<path d="M4440 255 l0 -245 50 0 50 0 0 58 c0 54 3 61 36 93 l36 34 89 -93 88
-92 67 0 66 0 -121 127 -121 128 122 117 123 117 -65 1 -65 0 -127 -127 -128
-128 0 128 0 127 -50 0 -50 0 0 -245z"/>
</g>
</svg>
