<?xml version="1.0" standalone="no"?>
<!DOCTYPE svg PUBLIC "-//W3C//DTD SVG 20010904//EN"
 "http://www.w3.org/TR/2001/REC-SVG-20010904/DTD/svg10.dtd">
<svg version="1.0" xmlns="http://www.w3.org/2000/svg"
 width="70.000000pt" height="49.000000pt" viewBox="0 0 70.000000 49.000000"
 preserveAspectRatio="xMidYMid meet">

<g transform="translate(0.000000,49.000000) scale(0.100000,-0.100000)"
fill="#000000" stroke="none">
<path d="M10 245 l0 -245 50 0 50 0 0 245 0 245 -50 0 -50 0 0 -245z"/>
<path d="M210 245 l0 -245 171 0 c197 0 237 8 281 58 28 33 30 39 26 99 -3 52
-9 68 -30 90 -25 24 -25 27 -12 60 31 73 -14 150 -100 172 -25 6 -110 11 -190
11 l-146 0 0 -245z m318 139 c22 -15 27 -38 16 -68 -5 -13 -25 -16 -120 -16
l-114 0 0 50 0 50 98 0 c72 0 103 -4 120 -16z m36 -185 c29 -23 33 -54 10 -87
-14 -21 -22 -22 -140 -22 l-124 0 0 65 0 65 114 0 c99 0 117 -3 140 -21z"/>
</g>
</svg>
