<?xml version="1.0" standalone="no"?>
<!DOCTYPE svg PUBLIC "-//W3C//DTD SVG 20010904//EN"
 "http://www.w3.org/TR/2001/REC-SVG-20010904/DTD/svg10.dtd">
<svg version="1.0" xmlns="http://www.w3.org/2000/svg"
 width="900.000000pt" height="800.000000pt" viewBox="0 0 900.000000 800.000000"
 preserveAspectRatio="xMidYMid meet">

<g transform="translate(0.000000,800.000000) scale(0.100000,-0.100000)"
fill="#000000" stroke="none">
<path d="M4080 7980 c-41 -11 -142 -31 -225 -45 -406 -70 -755 -181 -1110
-355 -613 -299 -1131 -752 -1524 -1330 -841 -1239 -930 -2819 -234 -4140 194
-367 410 -659 722 -971 325 -325 614 -534 1011 -732 364 -182 681 -286 1130
-369 l175 -33 428 -3 c471 -3 544 3 868 68 1074 216 2014 886 2593 1850 304
506 496 1084 557 1685 16 155 16 605 0 760 -97 948 -500 1802 -1166 2470 -607
610 -1381 992 -2255 1115 -76 11 -167 27 -202 35 -49 11 -132 15 -378 14 -274
0 -325 -3 -390 -19z m243 -1107 c-3 -412 -6 -749 -7 -750 -4 -5 -1706 -15
-1706 -9 0 3 27 60 59 125 325 647 786 1108 1301 1300 92 34 275 79 327 80
l31 1 -5 -747z m466 721 c579 -129 1124 -623 1487 -1346 30 -61 54 -111 52
-113 -2 -2 -382 -6 -846 -10 l-843 -8 3 564 c4 812 7 939 20 939 6 0 63 -12
127 -26z m1171 -229 c567 -240 1148 -701 1499 -1190 l31 -43 -428 -1 -428 -2
-33 83 c-167 413 -445 862 -704 1134 -66 70 -69 75 -37 61 19 -8 64 -27 100
-42z m-2968 -87 c-259 -300 -462 -637 -642 -1065 l-43 -103 -301 0 c-166 0
-348 -3 -405 -7 -123 -7 -122 -19 -1 137 350 450 789 805 1315 1062 88 43 161
78 163 78 1 0 -37 -46 -86 -102z m4776 -1605 c171 -337 285 -685 346 -1057 25
-146 52 -394 45 -401 -2 -2 -259 -5 -571 -7 l-567 -3 -5 85 c-40 579 -106 968
-245 1442 l-19 68 236 2 c130 2 343 4 474 6 l236 3 70 -138z m-1274 55 c97
-274 183 -654 230 -1025 17 -135 43 -490 35 -497 -2 -2 -485 -6 -1073 -8
l-1069 -3 6 335 c4 184 7 543 7 797 l0 463 343 2 c188 2 601 4 918 6 l577 3
26 -73z m-2186 -733 c-4 -438 -8 -798 -10 -800 -1 -1 -477 -5 -1055 -7 l-1053
-4 0 62 c0 105 29 419 56 599 42 287 105 556 191 822 l37 113 415 2 c229 2
643 4 920 6 l504 3 -5 -796z m-2118 778 c0 -4 -9 -37 -21 -73 -59 -189 -143
-578 -178 -825 -21 -146 -45 -402 -56 -587 l-7 -108 -540 0 -541 0 7 103 c31
460 163 941 370 1355 l66 131 62 3 c146 8 838 8 838 1z m4571 -2000 c-5 -341
-73 -833 -161 -1173 -17 -63 -54 -188 -82 -277 l-52 -163 -280 0 c-155 0 -572
-3 -929 -7 l-647 -6 2 569 c2 313 4 701 6 861 l3 293 1067 2 c587 2 1069 2
1071 1 2 -1 3 -46 2 -100z m1402 50 c-10 -241 -49 -516 -104 -743 -64 -261
-197 -613 -313 -825 l-44 -80 -153 -5 c-85 -3 -300 -7 -478 -8 -307 -3 -323
-2 -318 15 156 525 240 1019 263 1541 l7 162 571 0 571 0 -2 -57z m-3870 -815
c-3 -469 -6 -854 -7 -855 -1 -1 -405 -5 -898 -9 l-896 -7 -50 154 c-145 442
-231 923 -248 1386 l-7 172 34 3 c19 3 494 5 1056 6 l1023 2 -7 -852z m-2359
695 c24 -501 109 -1012 240 -1443 19 -63 34 -115 33 -116 -1 -1 -200 -3 -441
-5 l-439 -4 -68 130 c-212 404 -345 848 -394 1309 -8 80 -15 175 -15 211 l0
65 539 0 538 0 7 -147z m5495 -1945 c-335 -440 -782 -809 -1287 -1063 -113
-57 -286 -135 -298 -135 -3 0 38 48 90 108 258 290 486 660 649 1052 l44 105
254 5 c140 3 334 6 432 8 l179 3 -63 -83z m-1164 -55 c-322 -618 -758 -1058
-1234 -1248 -144 -57 -335 -105 -420 -105 l-24 0 6 283 c4 155 7 486 7 734 l0
453 328 3 c180 1 569 3 865 5 l539 2 -67 -127z m-1987 -445 c-3 -845 -5 -898
-27 -898 -42 0 -234 56 -342 100 -240 97 -432 232 -664 464 -230 230 -386 447
-555 768 l-62 118 299 2 c164 2 535 4 826 6 l527 3 -2 -563z m-1907 452 c99
-236 247 -507 395 -723 74 -107 216 -291 234 -302 5 -3 23 -24 41 -46 l32 -40
-34 14 c-324 141 -659 352 -940 594 -140 121 -355 343 -462 478 -48 60 -87
113 -87 118 0 4 176 6 391 5 l390 -3 40 -95z"/>
</g>
</svg>
