<?xml version="1.0" standalone="no"?>
<!DOCTYPE svg PUBLIC "-//W3C//DTD SVG 20010904//EN"
 "http://www.w3.org/TR/2001/REC-SVG-20010904/DTD/svg10.dtd">
<svg version="1.0" xmlns="http://www.w3.org/2000/svg"
 width="900.000000pt" height="512.000000pt" viewBox="0 0 900.000000 512.000000"
 preserveAspectRatio="xMidYMid meet">

<g transform="translate(0.000000,512.000000) scale(0.100000,-0.100000)"
fill="#000000" stroke="none">
<path d="M4300 4545 c-228 -42 -408 -133 -576 -289 -322 -298 -459 -785 -339
-1201 72 -249 166 -393 490 -755 276 -308 370 -439 494 -684 82 -163 100 -181
159 -160 22 8 40 36 102 159 122 245 228 391 507 701 233 259 316 370 392 521
174 345 170 787 -10 1116 -159 290 -414 489 -738 574 -120 32 -360 41 -481 18z
m371 -555 c134 -36 299 -169 367 -297 152 -287 50 -652 -229 -816 -403 -237
-918 54 -919 519 0 105 17 179 62 274 71 149 223 277 378 320 100 28 236 28
341 0z"/>
<path d="M2761 2318 c-31 -32 -820 -1657 -821 -1689 0 -14 10 -35 23 -47 l23
-22 2515 0 2516 0 21 23 c12 13 22 34 22 48 0 30 -791 1655 -821 1687 l-21 22
-376 -2 -376 -3 -109 -120 c-60 -66 -127 -139 -149 -162 l-39 -43 415 0 415 0
25 -22 c16 -14 127 -230 286 -557 143 -294 260 -536 260 -538 0 -2 -931 -3
-2070 -3 -1138 0 -2070 2 -2070 4 0 15 525 1075 541 1091 19 19 36 20 436 25
l417 5 -145 160 -145 160 -376 3 -376 2 -21 -22z"/>
</g>
</svg>
