<svg width="33" height="39" viewBox="0 0 33 39" fill="none" xmlns="http://www.w3.org/2000/svg">
<path fill-rule="evenodd" clip-rule="evenodd" d="M33 16.5C33 20.035 31.8884 23.3103 29.9956 25.9955C29.9956 25.9955 30.0009 25.9999 30.0034 26.0034C30.0181 26.0242 29.9574 26.0494 29.9574 26.0494C28.8831 27.5606 28.5 28 26 30.5C24.1919 32.3081 20.031 36.211 17.8662 38.233C17.0979 38.9507 15.9091 38.9492 15.143 38.2291C12.7924 36.0198 8.11143 31.6114 7 30.5C5.5 29 4.11279 27.5577 3.03419 26.0376L3 26.0034L3.00586 25.9976C1.1122 23.312 0 20.0359 0 16.5C0 7.3873 7.3873 0 16.5 0C25.6127 0 33 7.3873 33 16.5ZM16.5 23C20.0899 23 23 20.0899 23 16.5C23 12.9101 20.0899 10 16.5 10C12.9101 10 10 12.9101 10 16.5C10 20.0899 12.9101 23 16.5 23Z" fill="#2196F3"/>
</svg>
