<?xml version="1.0" standalone="no"?>
<!DOCTYPE svg PUBLIC "-//W3C//DTD SVG 20010904//EN"
 "http://www.w3.org/TR/2001/REC-SVG-20010904/DTD/svg10.dtd">
<svg version="1.0" xmlns="http://www.w3.org/2000/svg"
 width="900.000000pt" height="900.000000pt" viewBox="0 0 900.000000 900.000000"
 preserveAspectRatio="xMidYMid meet">

<g transform="translate(0.000000,900.000000) scale(0.100000,-0.100000)"
fill="#000000" stroke="none">
<path d="M8415 8981 c-27 -10 -117 -48 -200 -86 -223 -101 -309 -139 -655
-295 -173 -78 -583 -264 -910 -412 -327 -148 -710 -322 -850 -385 -140 -63
-302 -137 -360 -163 -58 -27 -325 -148 -595 -270 -269 -122 -643 -292 -830
-377 -187 -86 -383 -175 -435 -198 -125 -56 -265 -120 -670 -304 -323 -147
-427 -195 -657 -300 -60 -27 -209 -95 -333 -152 -124 -56 -333 -151 -465 -211
-132 -61 -339 -155 -460 -210 -839 -383 -809 -368 -877 -448 -126 -147 -153
-354 -67 -523 27 -53 132 -162 184 -192 39 -22 143 -47 640 -150 395 -82 665
-137 2300 -465 302 -60 552 -113 555 -118 4 -4 46 -203 93 -442 264 -1326 525
-2607 584 -2868 42 -187 61 -225 154 -302 93 -77 151 -101 266 -107 157 -8
273 31 369 126 59 58 98 139 484 986 43 94 151 330 240 525 158 346 996 2191
1227 2700 64 140 160 352 213 470 54 118 172 379 263 580 91 201 188 417 217
480 29 63 72 158 95 210 23 52 95 211 159 353 290 643 435 964 521 1157 23 52
75 167 115 255 146 325 248 561 259 600 37 134 -22 318 -135 425 -115 109
-309 158 -439 111z"/>
</g>
</svg>
