<?xml version="1.0" standalone="no"?>
<!DOCTYPE svg PUBLIC "-//W3C//DTD SVG 20010904//EN"
 "http://www.w3.org/TR/2001/REC-SVG-20010904/DTD/svg10.dtd">
<svg version="1.0" xmlns="http://www.w3.org/2000/svg"
 width="260.000000pt" height="280.000000pt" viewBox="0 0 260.000000 280.000000"
 preserveAspectRatio="xMidYMid meet">

<g transform="translate(0.000000,280.000000) scale(0.100000,-0.100000)"
fill="#000000" stroke="none">
<path d="M1808 2777 c-81 -28 -167 -85 -213 -141 -39 -48 -83 -131 -91 -175
l-6 -31 -709 0 c-426 0 -718 -4 -733 -10 -27 -10 -56 -56 -56 -89 0 -12 13
-35 29 -53 l29 -33 721 -3 c693 -2 721 -3 721 -21 0 -37 71 -159 122 -210 64
-64 170 -118 261 -133 126 -21 276 25 373 114 58 53 117 141 133 201 l13 45
70 4 c64 3 73 7 99 36 33 37 36 60 14 103 -20 37 -50 49 -124 49 l-57 0 -17
54 c-40 124 -149 239 -275 287 -89 33 -218 36 -304 6z m257 -191 c56 -26 119
-90 143 -145 8 -20 15 -65 16 -101 1 -196 -183 -327 -370 -263 -70 24 -147
103 -168 173 -20 68 -20 112 2 176 28 79 88 141 166 171 55 20 155 16 211 -11z"/>
<path d="M505 1849 c-74 -26 -154 -78 -201 -133 -39 -44 -104 -169 -104 -198
0 -16 -10 -18 -71 -18 -65 0 -73 -2 -100 -29 -39 -40 -39 -82 0 -122 27 -26
36 -29 96 -29 59 0 68 -2 72 -20 13 -49 74 -161 110 -201 140 -155 392 -196
572 -92 96 56 169 143 207 248 l22 60 722 5 722 5 24 28 c31 36 31 78 0 114
l-24 28 -722 5 -722 5 -22 60 c-51 141 -164 248 -305 289 -77 23 -202 20 -276
-5z m264 -188 c59 -31 94 -65 125 -120 89 -164 -4 -361 -190 -402 -145 -33
-293 67 -325 219 -28 136 55 273 193 318 55 18 146 11 197 -15z"/>
<path d="M1497 940 c-79 -14 -187 -71 -245 -130 -51 -52 -122 -175 -122 -211
0 -18 -23 -19 -536 -21 l-536 -3 -29 -33 c-16 -18 -29 -41 -29 -53 0 -33 29
-79 56 -89 15 -6 238 -10 545 -10 407 0 521 -3 524 -12 32 -94 52 -133 92
-183 85 -105 197 -163 333 -172 140 -10 261 38 362 145 58 61 87 109 108 180
l13 42 243 0 c133 0 254 4 268 10 27 10 56 56 56 89 0 12 -13 35 -29 53 l-29
33 -254 3 -254 3 -18 52 c-53 154 -184 269 -345 303 -72 15 -102 16 -174 4z
m175 -196 c150 -51 227 -239 155 -379 -52 -102 -137 -155 -247 -154 -36 0 -79
6 -97 12 -138 51 -210 198 -169 342 21 72 98 153 166 178 58 20 135 21 192 1z"/>
</g>
</svg>
