<?xml version="1.0" standalone="no"?>
<!DOCTYPE svg PUBLIC "-//W3C//DTD SVG 20010904//EN"
 "http://www.w3.org/TR/2001/REC-SVG-20010904/DTD/svg10.dtd">
<svg version="1.0" xmlns="http://www.w3.org/2000/svg"
 width="900.000000pt" height="512.000000pt" viewBox="0 0 900.000000 512.000000"
 preserveAspectRatio="xMidYMid meet">

<g transform="translate(0.000000,512.000000) scale(0.100000,-0.100000)"
fill="#000000" stroke="none">
<path d="M5055 4416 c-435 -85 -740 -435 -761 -876 -22 -437 268 -825 704
-942 119 -32 324 -30 454 5 331 88 578 338 670 677 29 107 31 316 5 422 -86
350 -335 606 -682 700 -93 25 -295 32 -390 14z m320 -211 c39 -8 113 -36 165
-61 80 -40 110 -62 186 -138 78 -78 98 -106 137 -186 139 -288 86 -605 -137
-825 -93 -92 -177 -144 -291 -182 -71 -24 -95 -27 -215 -27 -117 1 -145 4
-212 26 -122 41 -204 91 -300 188 -72 73 -94 103 -132 181 -148 306 -72 662
185 876 70 57 217 130 299 147 86 19 228 19 315 1z"/>
<path d="M5150 4079 c-136 -15 -255 -75 -355 -181 -67 -71 -123 -172 -144
-261 -14 -60 -16 -203 -2 -239 24 -63 108 -78 162 -30 30 27 31 31 34 117 4
97 17 148 59 218 68 118 235 193 372 168 191 -36 315 -180 316 -368 0 -89 -22
-157 -72 -224 -78 -104 -178 -152 -313 -151 -119 0 -157 -25 -157 -103 0 -78
43 -105 171 -105 160 0 299 58 414 175 112 112 165 243 165 405 0 167 -52 292
-171 411 -131 133 -290 188 -479 168z"/>
<path d="M4853 3262 c-72 -11 -99 -118 -44 -173 42 -41 98 -41 140 2 72 72 7
188 -96 171z"/>
<path d="M2087 3000 c-44 -13 -95 -57 -120 -103 l-22 -42 0 -890 c0 -987 -5
-914 66 -983 60 -58 87 -62 448 -62 324 0 326 0 378 24 51 24 113 91 113 123
0 7 2 13 3 13 2 0 75 -43 163 -97 258 -156 400 -217 618 -266 101 -22 105 -22
1036 -22 866 0 941 1 1020 18 166 36 350 111 472 193 93 63 643 511 693 565
141 151 135 370 -14 516 -122 120 -294 152 -446 84 -34 -15 -139 -87 -234
-159 -95 -73 -176 -132 -180 -132 -3 0 -14 22 -23 48 -33 92 -106 166 -198
203 -27 10 -144 14 -525 19 l-490 5 -35 24 c-19 13 -174 164 -345 335 -330
332 -367 362 -505 408 -63 22 -82 23 -537 26 l-471 3 -6 24 c-9 37 -66 96
-111 116 -36 17 -72 19 -380 18 -187 0 -353 -5 -368 -9z m668 -1035 l0 -830
-302 -3 -303 -2 0 835 0 835 303 -2 302 -3 0 -830z m1126 661 c101 -31 132
-56 464 -386 205 -203 346 -335 372 -349 96 -48 127 -51 606 -51 499 0 501 0
531 -65 9 -18 16 -58 16 -88 0 -44 -5 -59 -25 -81 l-24 -26 -669 0 c-561 0
-676 2 -718 15 -28 8 -95 43 -150 78 -54 35 -146 94 -203 130 -106 68 -137 78
-184 56 -28 -13 -57 -58 -57 -89 0 -50 30 -78 211 -195 100 -65 207 -131 238
-146 117 -59 128 -60 891 -57 656 3 697 4 729 22 19 10 170 120 335 244 166
125 317 234 336 244 70 37 167 13 227 -55 51 -58 56 -145 13 -200 -22 -27
-549 -457 -644 -525 -107 -77 -228 -133 -376 -175 -74 -21 -93 -21 -970 -25
-930 -3 -970 -2 -1134 39 -140 36 -253 89 -494 234 l-237 143 -3 661 -2 661
437 0 c347 0 448 -3 484 -14z"/>
<path d="M2414 2600 c-62 -25 -82 -107 -39 -158 32 -38 72 -48 118 -28 41 17
59 45 59 91 0 46 -18 74 -57 91 -39 16 -51 16 -81 4z"/>
</g>
</svg>
