<?xml version="1.0" standalone="no"?>
<!DOCTYPE svg PUBLIC "-//W3C//DTD SVG 20010904//EN"
 "http://www.w3.org/TR/2001/REC-SVG-20010904/DTD/svg10.dtd">
<svg version="1.0" xmlns="http://www.w3.org/2000/svg"
 width="920.000000pt" height="512.000000pt" viewBox="0 0 920.000000 512.000000"
 preserveAspectRatio="xMidYMid meet">

<g transform="translate(0.000000,512.000000) scale(0.100000,-0.100000)"
fill="#000000" stroke="none">
<path d="M4527 4986 c-21 -8 -55 -26 -75 -40 -20 -14 -350 -339 -733 -723
-477 -477 -704 -712 -720 -743 -31 -59 -34 -196 -5 -250 10 -19 129 -146 264
-282 l247 -248 635 0 635 0 -360 360 -360 360 105 105 105 105 465 -464 465
-465 171 -3 170 -3 76 -37 c89 -45 138 -94 182 -187 l31 -66 5 -573 5 -572
586 587 c531 533 588 593 603 637 21 66 20 134 -4 198 -18 49 -112 146 -1132
1165 -612 611 -1129 1119 -1148 1129 -46 23 -163 29 -213 10z m1011 -1495
l1199 -1199 -176 -176 -176 -176 -1200 1200 -1200 1200 175 175 c96 96 176
175 177 175 1 0 541 -540 1201 -1199z"/>
<path d="M2335 2587 c-59 -24 -94 -47 -129 -89 -69 -80 -66 -31 -66 -1157 l0
-1016 26 -55 c32 -69 65 -104 129 -138 l50 -27 1590 0 1590 0 42 23 c68 36
108 77 137 141 l26 59 -2 1034 c-3 975 -4 1035 -21 1069 -29 59 -81 112 -133
139 l-49 25 -1580 2 c-1196 1 -1587 -1 -1610 -10z m824 -305 c19 -9 44 -30 55
-45 20 -27 21 -42 21 -237 0 -195 -1 -210 -21 -237 -44 -60 -60 -63 -374 -63
-314 0 -330 3 -374 63 -20 27 -21 42 -21 237 0 195 1 210 21 237 44 60 60 63
374 63 252 0 289 -2 319 -18z"/>
</g>
</svg>
