<?xml version="1.0" standalone="no"?>
<!DOCTYPE svg PUBLIC "-//W3C//DTD SVG 20010904//EN"
 "http://www.w3.org/TR/2001/REC-SVG-20010904/DTD/svg10.dtd">
<svg version="1.0" xmlns="http://www.w3.org/2000/svg"
 width="225.000000pt" height="225.000000pt" viewBox="0 0 225.000000 225.000000"
 preserveAspectRatio="xMidYMid meet">

<g transform="translate(0.000000,225.000000) scale(0.100000,-0.100000)"
fill="#000000" stroke="none">
<path d="M1030 1955 c-113 -32 -210 -117 -252 -223 -34 -86 -32 -206 6 -288
35 -77 112 -154 191 -191 52 -24 72 -28 150 -28 78 0 98 4 150 28 79 37 156
114 191 191 38 83 40 201 4 291 -32 83 -123 174 -204 204 -79 29 -166 35 -236
16z"/>
<path d="M972 1011 c-187 -46 -351 -176 -430 -342 -59 -121 -89 -289 -62 -340
27 -49 29 -49 645 -49 616 0 618 0 645 49 27 51 -3 219 -62 340 -57 120 -170
232 -289 289 -149 71 -299 89 -447 53z"/>
</g>
</svg>
