<?xml version="1.0" standalone="no"?>
<!DOCTYPE svg PUBLIC "-//W3C//DTD SVG 20010904//EN"
 "http://www.w3.org/TR/2001/REC-SVG-20010904/DTD/svg10.dtd">
<svg version="1.0" xmlns="http://www.w3.org/2000/svg"
 width="536.000000pt" height="535.000000pt" viewBox="0 0 536.000000 535.000000"
 preserveAspectRatio="xMidYMid meet">

<g transform="translate(0.000000,535.000000) scale(0.100000,-0.100000)"
fill="#000000" stroke="none">
<path d="M298 5336 c-131 -47 -233 -151 -278 -285 -19 -57 -20 -84 -20 -551
l0 -490 225 0 225 0 0 445 0 445 445 0 445 0 0 225 0 225 -502 0 c-388 -1
-511 -4 -540 -14z"/>
<path d="M4020 5125 l0 -225 445 0 445 0 0 -445 0 -445 225 0 226 0 -3 508 -3
507 -36 75 c-43 90 -113 163 -202 211 l-62 34 -517 3 -518 3 0 -226z"/>
<path d="M895 4458 c-3 -7 -4 -312 -3 -678 l3 -665 670 0 670 0 0 675 0 675
-668 3 c-529 2 -669 0 -672 -10z m885 -663 l0 -215 -220 0 -220 0 0 215 0 215
220 0 220 0 0 -215z"/>
<path d="M3125 4458 c-3 -7 -4 -312 -3 -678 l3 -665 670 0 670 0 0 675 0 675
-668 3 c-529 2 -669 0 -672 -10z m895 -663 l0 -215 -220 0 -220 0 0 215 0 215
220 0 220 0 0 -215z"/>
<path d="M2455 4008 c-3 -7 -4 -211 -3 -453 l3 -440 225 0 225 0 0 450 0 450
-223 3 c-172 2 -224 0 -227 -10z"/>
<path d="M894 2897 c-2 -7 -3 -111 -2 -232 l3 -220 223 -3 222 -2 0 235 0 235
-220 0 c-170 0 -222 -3 -226 -13z"/>
<path d="M2010 2675 l0 -235 220 0 220 0 2 -217 3 -218 225 0 225 0 0 450 0
450 -447 3 -448 2 0 -235z"/>
<path d="M3125 2897 c-3 -7 -4 -111 -3 -232 l3 -220 223 -3 222 -2 0 -215 0
-215 -222 -2 -223 -3 -3 -107 -3 -108 -332 -2 -332 -3 0 -450 0 -450 225 0
225 0 3 222 2 223 330 0 330 0 2 -222 3 -223 223 -3 222 -2 0 225 0 225 225 0
225 0 0 340 0 340 -225 0 -225 0 0 215 0 215 223 2 222 3 0 230 0 230 -222 3
-223 2 0 -225 0 -225 -220 0 -220 0 -2 223 -3 222 -223 3 c-175 2 -224 0 -227
-11z m895 -1227 l0 -330 -220 0 -220 0 0 330 0 330 220 0 220 0 0 -330z"/>
<path d="M895 2228 c-3 -7 -4 -312 -3 -678 l3 -665 670 0 670 0 0 675 0 675
-668 3 c-529 2 -669 0 -672 -10z m885 -673 l0 -215 -220 0 -220 0 0 215 0 215
220 0 220 0 0 -215z"/>
<path d="M0 850 c0 -467 1 -494 20 -551 39 -115 112 -200 223 -261 l62 -33
518 -3 517 -3 0 226 0 225 -445 0 -445 0 0 445 0 445 -225 0 -225 0 0 -490z"/>
<path d="M4910 895 l0 -445 -445 0 -445 0 0 -225 0 -226 518 3 517 3 62 33
c87 48 158 122 202 212 l36 75 3 508 3 507 -226 0 -225 0 0 -445z"/>
</g>
</svg>
